# xmcd CD database file
#
# Track frame offsets:
#	150
#	11832
#	23131
#	36732
#	48900
#	63867
#	78093
#	88497
#	99001
#	111663
#	121993
#	134689
#	146506
#	160097
#	171521
#	184181
#	194461
#	208664
#
# Disc length: 2942 seconds
#
# Revision: 1
# Processed by: cddbd v1.5.2PL0 Copyright (c) Steve Scherf et al.
# Submitted via: CDex 1.51
#
DISCID=060b7c12
DTITLE=Ray Charles - Ray Charles
DYEAR=1900
DGENRE=Blues
TTITLE0=See see rider
TTITLE1=She's on the ball
TTITLE2=Baby let me hold your hand
TTITLE3=I've had my fun (going down slow)
TTITLE4=I'm wondering and wondering
TTITLE5=Walkin' and talkin' (to myself)
TTITLE6=Hey now
TTITLE7=I wonder who's kissing her now
TTITLE8=Blues before sunrise
TTITLE9=Ain't that fine
TTITLE10=You'll never miss the water
TTITLE11=The sun's gonna shine again
TTITLE12=The midnight hour
TTITLE13=Back home
TTITLE14=Why did you go
TTITLE15=Sitting on top of the world (now she's gone)
TTITLE16=Someday
TTITLE17=I love you, Ilove you
EXTD=
EXTT0=
EXTT1=
EXTT2=
EXTT3=
EXTT4=
EXTT5=
EXTT6=
EXTT7=
EXTT8=
EXTT9=
EXTT10=
EXTT11=
EXTT12=
EXTT13=
EXTT14=
EXTT15=
EXTT16=
EXTT17=
PLAYORDER=
